<mxfile host="app.diagrams.net" modified="2024-01-15T18:08:43.263Z" agent="Mozilla/5.0 (Macintosh; Intel Mac OS X 10_15_7) AppleWebKit/537.36 (KHTML, like Gecko) Chrome/120.0.0.0 Safari/537.36" etag="mYiwLxaRiM7doKCcuroy" version="22.1.18" type="device" pages="8">
  <diagram id="b5oJCEWMyFYrRd6jnJKM" name="Page-1">
    <mxGraphModel dx="1434" dy="820" grid="1" gridSize="10" guides="1" tooltips="1" connect="1" arrows="1" fold="1" page="1" pageScale="1" pageWidth="850" pageHeight="1100" math="0" shadow="0">
      <root>
        <mxCell id="0" />
        <mxCell id="1" parent="0" />
        <mxCell id="KH8iNM44NsBBeB5rh1bY-1" value="aws_vpc" style="rounded=1;whiteSpace=wrap;html=1;strokeWidth=3;" parent="1" vertex="1">
          <mxGeometry x="340" y="180" width="120" height="60" as="geometry" />
        </mxCell>
        <mxCell id="KH8iNM44NsBBeB5rh1bY-2" value="aws_subnet&lt;br&gt;aws_vpc.vpc.id" style="rounded=1;whiteSpace=wrap;html=1;strokeWidth=3;" parent="1" vertex="1">
          <mxGeometry x="340" y="330" width="120" height="60" as="geometry" />
        </mxCell>
        <mxCell id="KH8iNM44NsBBeB5rh1bY-3" value="aws_instance&lt;br&gt;aws_subnet.subnet1.id" style="rounded=1;whiteSpace=wrap;html=1;strokeWidth=3;" parent="1" vertex="1">
          <mxGeometry x="300" y="480" width="190" height="60" as="geometry" />
        </mxCell>
        <mxCell id="KH8iNM44NsBBeB5rh1bY-5" value="" style="endArrow=classic;html=1;rounded=0;exitX=0.5;exitY=0;exitDx=0;exitDy=0;" parent="1" source="KH8iNM44NsBBeB5rh1bY-2" edge="1">
          <mxGeometry width="50" height="50" relative="1" as="geometry">
            <mxPoint x="350" y="290" as="sourcePoint" />
            <mxPoint x="400" y="240" as="targetPoint" />
          </mxGeometry>
        </mxCell>
        <mxCell id="KH8iNM44NsBBeB5rh1bY-6" value="" style="endArrow=classic;html=1;rounded=0;exitX=0.5;exitY=0;exitDx=0;exitDy=0;" parent="1" edge="1">
          <mxGeometry width="50" height="50" relative="1" as="geometry">
            <mxPoint x="399.5" y="480" as="sourcePoint" />
            <mxPoint x="399.5" y="390" as="targetPoint" />
          </mxGeometry>
        </mxCell>
      </root>
    </mxGraphModel>
  </diagram>
  <diagram id="yXFdzVb-WNefUGYK2Us4" name="Page-2">
    <mxGraphModel dx="1291" dy="662" grid="1" gridSize="10" guides="1" tooltips="1" connect="1" arrows="1" fold="1" page="1" pageScale="1" pageWidth="850" pageHeight="1100" math="0" shadow="0">
      <root>
        <mxCell id="MukCajckhvl_l8_VbR9M-0" />
        <mxCell id="MukCajckhvl_l8_VbR9M-1" parent="MukCajckhvl_l8_VbR9M-0" />
        <mxCell id="MukCajckhvl_l8_VbR9M-2" value="aws_iam_role" style="rounded=1;whiteSpace=wrap;html=1;strokeWidth=3;" parent="MukCajckhvl_l8_VbR9M-1" vertex="1">
          <mxGeometry x="285" y="180" width="230" height="60" as="geometry" />
        </mxCell>
        <mxCell id="MukCajckhvl_l8_VbR9M-4" value="aws_instance" style="rounded=1;whiteSpace=wrap;html=1;strokeWidth=3;" parent="MukCajckhvl_l8_VbR9M-1" vertex="1">
          <mxGeometry x="130" y="440" width="230" height="60" as="geometry" />
        </mxCell>
        <mxCell id="MukCajckhvl_l8_VbR9M-6" value="" style="endArrow=classic;html=1;rounded=0;exitX=0.5;exitY=0;exitDx=0;exitDy=0;" parent="MukCajckhvl_l8_VbR9M-1" source="MukCajckhvl_l8_VbR9M-8" edge="1">
          <mxGeometry width="50" height="50" relative="1" as="geometry">
            <mxPoint x="390" y="330" as="sourcePoint" />
            <mxPoint x="390" y="240" as="targetPoint" />
          </mxGeometry>
        </mxCell>
        <mxCell id="MukCajckhvl_l8_VbR9M-7" value="aws_iam_role_policy" style="rounded=1;whiteSpace=wrap;html=1;strokeWidth=3;" parent="MukCajckhvl_l8_VbR9M-1" vertex="1">
          <mxGeometry x="440" y="320" width="230" height="60" as="geometry" />
        </mxCell>
        <mxCell id="MukCajckhvl_l8_VbR9M-8" value="aws_iam_instance_profile" style="rounded=1;whiteSpace=wrap;html=1;strokeWidth=3;" parent="MukCajckhvl_l8_VbR9M-1" vertex="1">
          <mxGeometry x="130" y="320" width="230" height="60" as="geometry" />
        </mxCell>
        <mxCell id="MukCajckhvl_l8_VbR9M-9" value="" style="endArrow=classic;html=1;rounded=0;exitX=0.5;exitY=0;exitDx=0;exitDy=0;" parent="MukCajckhvl_l8_VbR9M-1" source="MukCajckhvl_l8_VbR9M-7" edge="1">
          <mxGeometry width="50" height="50" relative="1" as="geometry">
            <mxPoint x="400" y="430" as="sourcePoint" />
            <mxPoint x="390" y="240" as="targetPoint" />
          </mxGeometry>
        </mxCell>
        <mxCell id="MukCajckhvl_l8_VbR9M-10" value="depends_on" style="rounded=0;whiteSpace=wrap;html=1;strokeWidth=3;" parent="MukCajckhvl_l8_VbR9M-1" vertex="1">
          <mxGeometry x="510" y="450" width="90" height="40" as="geometry" />
        </mxCell>
        <mxCell id="MukCajckhvl_l8_VbR9M-11" value="" style="endArrow=none;dashed=1;html=1;rounded=0;entryX=0;entryY=0.5;entryDx=0;entryDy=0;" parent="MukCajckhvl_l8_VbR9M-1" target="MukCajckhvl_l8_VbR9M-10" edge="1">
          <mxGeometry width="50" height="50" relative="1" as="geometry">
            <mxPoint x="360" y="470" as="sourcePoint" />
            <mxPoint x="410" y="420" as="targetPoint" />
          </mxGeometry>
        </mxCell>
        <mxCell id="MukCajckhvl_l8_VbR9M-12" value="" style="endArrow=classic;html=1;rounded=0;exitX=0.433;exitY=0;exitDx=0;exitDy=0;exitPerimeter=0;dashed=1;" parent="MukCajckhvl_l8_VbR9M-1" source="MukCajckhvl_l8_VbR9M-10" edge="1">
          <mxGeometry width="50" height="50" relative="1" as="geometry">
            <mxPoint x="500" y="430" as="sourcePoint" />
            <mxPoint x="550" y="380" as="targetPoint" />
          </mxGeometry>
        </mxCell>
        <mxCell id="MukCajckhvl_l8_VbR9M-13" value="" style="endArrow=classic;html=1;rounded=0;exitX=0.474;exitY=-0.017;exitDx=0;exitDy=0;exitPerimeter=0;" parent="MukCajckhvl_l8_VbR9M-1" source="MukCajckhvl_l8_VbR9M-4" edge="1">
          <mxGeometry width="50" height="50" relative="1" as="geometry">
            <mxPoint x="190" y="430" as="sourcePoint" />
            <mxPoint x="240" y="380" as="targetPoint" />
          </mxGeometry>
        </mxCell>
      </root>
    </mxGraphModel>
  </diagram>
  <diagram id="KLUEUSGqEvqKGlzYz3b6" name="Page-3">
    <mxGraphModel dx="1291" dy="662" grid="1" gridSize="10" guides="1" tooltips="1" connect="1" arrows="1" fold="1" page="1" pageScale="1" pageWidth="850" pageHeight="1100" math="0" shadow="0">
      <root>
        <mxCell id="8Cy2cxIcTG0C7WHzA7dQ-0" />
        <mxCell id="8Cy2cxIcTG0C7WHzA7dQ-1" parent="8Cy2cxIcTG0C7WHzA7dQ-0" />
        <mxCell id="8Cy2cxIcTG0C7WHzA7dQ-9" value="" style="rounded=0;whiteSpace=wrap;html=1;fillColor=none;dashed=1;strokeWidth=4;" parent="8Cy2cxIcTG0C7WHzA7dQ-1" vertex="1">
          <mxGeometry x="160" y="110" width="340" height="320" as="geometry" />
        </mxCell>
        <mxCell id="8Cy2cxIcTG0C7WHzA7dQ-10" value="" style="rounded=0;whiteSpace=wrap;html=1;strokeWidth=2;fillColor=none;" parent="8Cy2cxIcTG0C7WHzA7dQ-1" vertex="1">
          <mxGeometry x="140" y="79" width="380" height="381" as="geometry" />
        </mxCell>
        <mxCell id="8Cy2cxIcTG0C7WHzA7dQ-2" value="" style="outlineConnect=0;dashed=0;verticalLabelPosition=bottom;verticalAlign=top;align=center;html=1;shape=mxgraph.aws3.virtual_private_cloud;fillColor=#F58534;gradientColor=none;" parent="8Cy2cxIcTG0C7WHzA7dQ-1" vertex="1">
          <mxGeometry x="288.5" y="360" width="79.5" height="54" as="geometry" />
        </mxCell>
        <mxCell id="8Cy2cxIcTG0C7WHzA7dQ-3" value="" style="sketch=0;points=[[0,0,0],[0.25,0,0],[0.5,0,0],[0.75,0,0],[1,0,0],[0,1,0],[0.25,1,0],[0.5,1,0],[0.75,1,0],[1,1,0],[0,0.25,0],[0,0.5,0],[0,0.75,0],[1,0.25,0],[1,0.5,0],[1,0.75,0]];outlineConnect=0;fontColor=#232F3E;gradientColor=#F78E04;gradientDirection=north;fillColor=#D05C17;strokeColor=#ffffff;dashed=0;verticalLabelPosition=bottom;verticalAlign=top;align=center;html=1;fontSize=12;fontStyle=0;aspect=fixed;shape=mxgraph.aws4.resourceIcon;resIcon=mxgraph.aws4.ec2;" parent="8Cy2cxIcTG0C7WHzA7dQ-1" vertex="1">
          <mxGeometry x="290" y="170" width="78" height="78" as="geometry" />
        </mxCell>
        <mxCell id="8Cy2cxIcTG0C7WHzA7dQ-4" value="" style="rounded=1;arcSize=10;dashed=0;fillColor=none;gradientColor=none;strokeWidth=2;" parent="8Cy2cxIcTG0C7WHzA7dQ-1" vertex="1">
          <mxGeometry x="229" y="140" width="200" height="200" as="geometry" />
        </mxCell>
        <mxCell id="8Cy2cxIcTG0C7WHzA7dQ-6" value="subnet-1" style="text;html=1;strokeColor=none;fillColor=none;align=center;verticalAlign=middle;whiteSpace=wrap;rounded=0;" parent="8Cy2cxIcTG0C7WHzA7dQ-1" vertex="1">
          <mxGeometry x="298.25" y="280" width="60" height="30" as="geometry" />
        </mxCell>
        <mxCell id="8Cy2cxIcTG0C7WHzA7dQ-7" value="" style="outlineConnect=0;dashed=0;verticalLabelPosition=bottom;verticalAlign=top;align=center;html=1;shape=mxgraph.aws3.internet_gateway;fillColor=#F58534;gradientColor=none;" parent="8Cy2cxIcTG0C7WHzA7dQ-1" vertex="1">
          <mxGeometry x="500" y="440" width="49" height="52" as="geometry" />
        </mxCell>
      </root>
    </mxGraphModel>
  </diagram>
  <diagram id="FNn7n5TGP1hnqBJHpbDO" name="Page-4">
    <mxGraphModel dx="1291" dy="662" grid="1" gridSize="10" guides="1" tooltips="1" connect="1" arrows="1" fold="1" page="1" pageScale="1" pageWidth="850" pageHeight="1100" math="0" shadow="0">
      <root>
        <mxCell id="NzP8y8UrugyRb5gv5aeu-0" />
        <mxCell id="NzP8y8UrugyRb5gv5aeu-1" parent="NzP8y8UrugyRb5gv5aeu-0" />
        <mxCell id="NzP8y8UrugyRb5gv5aeu-4" value="" style="rounded=1;arcSize=10;dashed=0;fillColor=none;gradientColor=none;strokeWidth=2;" parent="NzP8y8UrugyRb5gv5aeu-1" vertex="1">
          <mxGeometry x="229" y="140" width="200" height="200" as="geometry" />
        </mxCell>
        <mxCell id="NzP8y8UrugyRb5gv5aeu-17" value="" style="rounded=1;arcSize=10;dashed=0;fillColor=none;gradientColor=none;strokeWidth=2;" parent="NzP8y8UrugyRb5gv5aeu-1" vertex="1">
          <mxGeometry x="679.75" y="140" width="200" height="200" as="geometry" />
        </mxCell>
        <mxCell id="NzP8y8UrugyRb5gv5aeu-7" value="" style="rounded=0;whiteSpace=wrap;html=1;fillColor=none;dashed=1;strokeWidth=4;" parent="NzP8y8UrugyRb5gv5aeu-1" vertex="1">
          <mxGeometry x="160" y="110" width="780" height="320" as="geometry" />
        </mxCell>
        <mxCell id="NzP8y8UrugyRb5gv5aeu-3" value="" style="sketch=0;points=[[0,0,0],[0.25,0,0],[0.5,0,0],[0.75,0,0],[1,0,0],[0,1,0],[0.25,1,0],[0.5,1,0],[0.75,1,0],[1,1,0],[0,0.25,0],[0,0.5,0],[0,0.75,0],[1,0.25,0],[1,0.5,0],[1,0.75,0]];outlineConnect=0;fontColor=#232F3E;gradientColor=#F78E04;gradientDirection=north;fillColor=#D05C17;strokeColor=#ffffff;dashed=0;verticalLabelPosition=bottom;verticalAlign=top;align=center;html=1;fontSize=12;fontStyle=0;aspect=fixed;shape=mxgraph.aws4.resourceIcon;resIcon=mxgraph.aws4.ec2;" parent="NzP8y8UrugyRb5gv5aeu-1" vertex="1">
          <mxGeometry x="290" y="170" width="78" height="78" as="geometry" />
        </mxCell>
        <mxCell id="NzP8y8UrugyRb5gv5aeu-6" value="subnet-1 AZ-1" style="text;html=1;strokeColor=none;fillColor=none;align=center;verticalAlign=middle;whiteSpace=wrap;rounded=0;" parent="NzP8y8UrugyRb5gv5aeu-1" vertex="1">
          <mxGeometry x="298.25" y="280" width="60" height="30" as="geometry" />
        </mxCell>
        <mxCell id="NzP8y8UrugyRb5gv5aeu-8" value="" style="rounded=0;whiteSpace=wrap;html=1;strokeWidth=2;fillColor=none;" parent="NzP8y8UrugyRb5gv5aeu-1" vertex="1">
          <mxGeometry x="115" y="79.5" width="870" height="381" as="geometry" />
        </mxCell>
        <mxCell id="NzP8y8UrugyRb5gv5aeu-2" value="" style="outlineConnect=0;dashed=0;verticalLabelPosition=bottom;verticalAlign=top;align=center;html=1;shape=mxgraph.aws3.virtual_private_cloud;fillColor=#F58534;gradientColor=none;" parent="NzP8y8UrugyRb5gv5aeu-1" vertex="1">
          <mxGeometry x="514.75" y="360" width="79.5" height="54" as="geometry" />
        </mxCell>
        <mxCell id="NzP8y8UrugyRb5gv5aeu-9" value="" style="outlineConnect=0;dashed=0;verticalLabelPosition=bottom;verticalAlign=top;align=center;html=1;shape=mxgraph.aws3.internet_gateway;fillColor=#F58534;gradientColor=none;" parent="NzP8y8UrugyRb5gv5aeu-1" vertex="1">
          <mxGeometry x="960" y="440" width="49" height="52" as="geometry" />
        </mxCell>
        <mxCell id="NzP8y8UrugyRb5gv5aeu-15" value="" style="sketch=0;points=[[0,0,0],[0.25,0,0],[0.5,0,0],[0.75,0,0],[1,0,0],[0,1,0],[0.25,1,0],[0.5,1,0],[0.75,1,0],[1,1,0],[0,0.25,0],[0,0.5,0],[0,0.75,0],[1,0.25,0],[1,0.5,0],[1,0.75,0]];outlineConnect=0;fontColor=#232F3E;gradientColor=#F78E04;gradientDirection=north;fillColor=#D05C17;strokeColor=#ffffff;dashed=0;verticalLabelPosition=bottom;verticalAlign=top;align=center;html=1;fontSize=12;fontStyle=0;aspect=fixed;shape=mxgraph.aws4.resourceIcon;resIcon=mxgraph.aws4.ec2;" parent="NzP8y8UrugyRb5gv5aeu-1" vertex="1">
          <mxGeometry x="741.5" y="155" width="78" height="78" as="geometry" />
        </mxCell>
        <mxCell id="NzP8y8UrugyRb5gv5aeu-16" value="subnet-2 AZ-2" style="text;html=1;strokeColor=none;fillColor=none;align=center;verticalAlign=middle;whiteSpace=wrap;rounded=0;" parent="NzP8y8UrugyRb5gv5aeu-1" vertex="1">
          <mxGeometry x="750.5" y="280" width="60" height="30" as="geometry" />
        </mxCell>
        <mxCell id="kKu8uuwvvXdXx7_gs_oZ-0" value="" style="outlineConnect=0;dashed=0;verticalLabelPosition=bottom;verticalAlign=top;align=center;html=1;shape=mxgraph.aws3.classic_load_balancer;fillColor=#F58534;gradientColor=none;strokeWidth=2;" parent="NzP8y8UrugyRb5gv5aeu-1" vertex="1">
          <mxGeometry x="514.75" y="60" width="69" height="72" as="geometry" />
        </mxCell>
      </root>
    </mxGraphModel>
  </diagram>
  <diagram id="JGYHu8fTG3HheNsZsPUm" name="Page-5">
    <mxGraphModel dx="1291" dy="662" grid="1" gridSize="10" guides="1" tooltips="1" connect="1" arrows="1" fold="1" page="1" pageScale="1" pageWidth="850" pageHeight="1100" math="0" shadow="0">
      <root>
        <mxCell id="FoR4dEXcV-ODCqGeyC3K-0" />
        <mxCell id="FoR4dEXcV-ODCqGeyC3K-1" parent="FoR4dEXcV-ODCqGeyC3K-0" />
        <mxCell id="FoR4dEXcV-ODCqGeyC3K-2" value="" style="rounded=1;arcSize=10;dashed=0;fillColor=none;gradientColor=none;strokeWidth=2;" parent="FoR4dEXcV-ODCqGeyC3K-1" vertex="1">
          <mxGeometry x="229" y="140" width="200" height="200" as="geometry" />
        </mxCell>
        <mxCell id="FoR4dEXcV-ODCqGeyC3K-3" value="" style="rounded=1;arcSize=10;dashed=0;fillColor=none;gradientColor=none;strokeWidth=2;" parent="FoR4dEXcV-ODCqGeyC3K-1" vertex="1">
          <mxGeometry x="679.75" y="140" width="200" height="200" as="geometry" />
        </mxCell>
        <mxCell id="FoR4dEXcV-ODCqGeyC3K-4" value="" style="rounded=0;whiteSpace=wrap;html=1;fillColor=none;dashed=1;strokeWidth=4;" parent="FoR4dEXcV-ODCqGeyC3K-1" vertex="1">
          <mxGeometry x="160" y="110" width="780" height="320" as="geometry" />
        </mxCell>
        <mxCell id="FoR4dEXcV-ODCqGeyC3K-5" value="" style="sketch=0;points=[[0,0,0],[0.25,0,0],[0.5,0,0],[0.75,0,0],[1,0,0],[0,1,0],[0.25,1,0],[0.5,1,0],[0.75,1,0],[1,1,0],[0,0.25,0],[0,0.5,0],[0,0.75,0],[1,0.25,0],[1,0.5,0],[1,0.75,0]];outlineConnect=0;fontColor=#232F3E;gradientColor=#F78E04;gradientDirection=north;fillColor=#D05C17;strokeColor=#ffffff;dashed=0;verticalLabelPosition=bottom;verticalAlign=top;align=center;html=1;fontSize=12;fontStyle=0;aspect=fixed;shape=mxgraph.aws4.resourceIcon;resIcon=mxgraph.aws4.ec2;" parent="FoR4dEXcV-ODCqGeyC3K-1" vertex="1">
          <mxGeometry x="290" y="170" width="78" height="78" as="geometry" />
        </mxCell>
        <mxCell id="FoR4dEXcV-ODCqGeyC3K-6" value="subnet-1 AZ-1" style="text;html=1;strokeColor=none;fillColor=none;align=center;verticalAlign=middle;whiteSpace=wrap;rounded=0;" parent="FoR4dEXcV-ODCqGeyC3K-1" vertex="1">
          <mxGeometry x="298.25" y="280" width="60" height="30" as="geometry" />
        </mxCell>
        <mxCell id="FoR4dEXcV-ODCqGeyC3K-7" value="" style="rounded=0;whiteSpace=wrap;html=1;strokeWidth=2;fillColor=none;" parent="FoR4dEXcV-ODCqGeyC3K-1" vertex="1">
          <mxGeometry x="115" y="79.5" width="870" height="381" as="geometry" />
        </mxCell>
        <mxCell id="FoR4dEXcV-ODCqGeyC3K-8" value="" style="outlineConnect=0;dashed=0;verticalLabelPosition=bottom;verticalAlign=top;align=center;html=1;shape=mxgraph.aws3.virtual_private_cloud;fillColor=#F58534;gradientColor=none;" parent="FoR4dEXcV-ODCqGeyC3K-1" vertex="1">
          <mxGeometry x="514.75" y="360" width="79.5" height="54" as="geometry" />
        </mxCell>
        <mxCell id="FoR4dEXcV-ODCqGeyC3K-9" value="" style="outlineConnect=0;dashed=0;verticalLabelPosition=bottom;verticalAlign=top;align=center;html=1;shape=mxgraph.aws3.internet_gateway;fillColor=#F58534;gradientColor=none;" parent="FoR4dEXcV-ODCqGeyC3K-1" vertex="1">
          <mxGeometry x="960" y="440" width="49" height="52" as="geometry" />
        </mxCell>
        <mxCell id="FoR4dEXcV-ODCqGeyC3K-10" value="" style="sketch=0;points=[[0,0,0],[0.25,0,0],[0.5,0,0],[0.75,0,0],[1,0,0],[0,1,0],[0.25,1,0],[0.5,1,0],[0.75,1,0],[1,1,0],[0,0.25,0],[0,0.5,0],[0,0.75,0],[1,0.25,0],[1,0.5,0],[1,0.75,0]];outlineConnect=0;fontColor=#232F3E;gradientColor=#F78E04;gradientDirection=north;fillColor=#D05C17;strokeColor=#ffffff;dashed=0;verticalLabelPosition=bottom;verticalAlign=top;align=center;html=1;fontSize=12;fontStyle=0;aspect=fixed;shape=mxgraph.aws4.resourceIcon;resIcon=mxgraph.aws4.ec2;" parent="FoR4dEXcV-ODCqGeyC3K-1" vertex="1">
          <mxGeometry x="741.5" y="155" width="78" height="78" as="geometry" />
        </mxCell>
        <mxCell id="FoR4dEXcV-ODCqGeyC3K-11" value="subnet-2 AZ-2" style="text;html=1;strokeColor=none;fillColor=none;align=center;verticalAlign=middle;whiteSpace=wrap;rounded=0;" parent="FoR4dEXcV-ODCqGeyC3K-1" vertex="1">
          <mxGeometry x="750.5" y="280" width="60" height="30" as="geometry" />
        </mxCell>
        <mxCell id="FoR4dEXcV-ODCqGeyC3K-12" value="" style="outlineConnect=0;dashed=0;verticalLabelPosition=bottom;verticalAlign=top;align=center;html=1;shape=mxgraph.aws3.classic_load_balancer;fillColor=#F58534;gradientColor=none;strokeWidth=2;" parent="FoR4dEXcV-ODCqGeyC3K-1" vertex="1">
          <mxGeometry x="514.75" y="60" width="69" height="72" as="geometry" />
        </mxCell>
        <mxCell id="FoR4dEXcV-ODCqGeyC3K-13" value="" style="outlineConnect=0;dashed=0;verticalLabelPosition=bottom;verticalAlign=top;align=center;html=1;shape=mxgraph.aws3.bucket_with_objects;fillColor=#E05243;gradientColor=none;strokeWidth=2;" parent="FoR4dEXcV-ODCqGeyC3K-1" vertex="1">
          <mxGeometry x="290" y="580" width="60" height="61.5" as="geometry" />
        </mxCell>
        <mxCell id="FoR4dEXcV-ODCqGeyC3K-14" value="" style="sketch=0;pointerEvents=1;shadow=0;dashed=0;html=1;strokeColor=none;fillColor=#505050;labelPosition=center;verticalLabelPosition=bottom;verticalAlign=top;outlineConnect=0;align=center;shape=mxgraph.office.concepts.web_page;" parent="FoR4dEXcV-ODCqGeyC3K-1" vertex="1">
          <mxGeometry x="298.25" y="710" width="50" height="54" as="geometry" />
        </mxCell>
        <mxCell id="FoR4dEXcV-ODCqGeyC3K-15" value="" style="endArrow=classic;html=1;rounded=0;" parent="FoR4dEXcV-ODCqGeyC3K-1" edge="1">
          <mxGeometry width="50" height="50" relative="1" as="geometry">
            <mxPoint x="320" y="700" as="sourcePoint" />
            <mxPoint x="320" y="650" as="targetPoint" />
          </mxGeometry>
        </mxCell>
        <mxCell id="FoR4dEXcV-ODCqGeyC3K-18" value="" style="endArrow=classic;html=1;rounded=0;dashed=1;" parent="FoR4dEXcV-ODCqGeyC3K-1" edge="1">
          <mxGeometry width="50" height="50" relative="1" as="geometry">
            <mxPoint x="319.5" y="340" as="sourcePoint" />
            <mxPoint x="320" y="570" as="targetPoint" />
          </mxGeometry>
        </mxCell>
        <mxCell id="FoR4dEXcV-ODCqGeyC3K-19" value="" style="endArrow=classic;html=1;rounded=0;dashed=1;" parent="FoR4dEXcV-ODCqGeyC3K-1" edge="1">
          <mxGeometry width="50" height="50" relative="1" as="geometry">
            <mxPoint x="768.75" y="340" as="sourcePoint" />
            <mxPoint x="350" y="610" as="targetPoint" />
            <Array as="points">
              <mxPoint x="769" y="610" />
            </Array>
          </mxGeometry>
        </mxCell>
      </root>
    </mxGraphModel>
  </diagram>
  <diagram id="mvW2-im6FzcC6CCewZdt" name="Page-6">
    <mxGraphModel dx="1434" dy="820" grid="1" gridSize="10" guides="1" tooltips="1" connect="1" arrows="1" fold="1" page="1" pageScale="1" pageWidth="850" pageHeight="1100" math="0" shadow="0">
      <root>
        <mxCell id="Um9vtxeuA9d53YDTD32n-0" />
        <mxCell id="Um9vtxeuA9d53YDTD32n-1" parent="Um9vtxeuA9d53YDTD32n-0" />
        <mxCell id="Um9vtxeuA9d53YDTD32n-2" value="&lt;h1&gt;Terraform Workflow&lt;/h1&gt;&lt;p&gt;$ terraform init&lt;/p&gt;" style="text;html=1;strokeColor=none;fillColor=none;spacing=5;spacingTop=-20;whiteSpace=wrap;overflow=hidden;rounded=0;" parent="Um9vtxeuA9d53YDTD32n-1" vertex="1">
          <mxGeometry x="160" y="10" width="480" height="120" as="geometry" />
        </mxCell>
        <mxCell id="Um9vtxeuA9d53YDTD32n-3" value="" style="image;html=1;image=img/lib/clip_art/general/Empty_Folder_128x128.png;fontFamily=Verdana;" parent="Um9vtxeuA9d53YDTD32n-1" vertex="1">
          <mxGeometry x="80" y="130" width="80" height="80" as="geometry" />
        </mxCell>
        <mxCell id="Um9vtxeuA9d53YDTD32n-4" value="" style="sketch=0;outlineConnect=0;gradientColor=none;fontColor=#545B64;strokeColor=none;fillColor=#879196;dashed=0;verticalLabelPosition=bottom;verticalAlign=top;align=center;html=1;fontSize=12;fontStyle=0;aspect=fixed;shape=mxgraph.aws4.illustration_desktop;pointerEvents=1;fontFamily=Verdana;" parent="Um9vtxeuA9d53YDTD32n-1" vertex="1">
          <mxGeometry x="180" y="290" width="100" height="91" as="geometry" />
        </mxCell>
        <mxCell id="Um9vtxeuA9d53YDTD32n-5" value="" style="verticalLabelPosition=bottom;html=1;verticalAlign=top;align=center;strokeColor=none;fillColor=#00BEF2;shape=mxgraph.azure.code_file;pointerEvents=1;fontFamily=Verdana;" parent="Um9vtxeuA9d53YDTD32n-1" vertex="1">
          <mxGeometry x="300" y="160" width="47.5" height="50" as="geometry" />
        </mxCell>
        <mxCell id="Um9vtxeuA9d53YDTD32n-6" value="" style="shape=image;html=1;verticalAlign=top;verticalLabelPosition=bottom;labelBackgroundColor=#ffffff;imageAspect=0;aspect=fixed;image=https://cdn2.iconfinder.com/data/icons/essential-web-5/50/puzzle-solution-problem-challenge-resolution-128.png;fontFamily=Verdana;" parent="Um9vtxeuA9d53YDTD32n-1" vertex="1">
          <mxGeometry x="401" y="300" width="48" height="48" as="geometry" />
        </mxCell>
        <mxCell id="Um9vtxeuA9d53YDTD32n-7" value="" style="endArrow=classic;html=1;rounded=0;fontFamily=Verdana;exitX=1;exitY=1;exitDx=0;exitDy=0;" parent="Um9vtxeuA9d53YDTD32n-1" source="Um9vtxeuA9d53YDTD32n-3" target="Um9vtxeuA9d53YDTD32n-4" edge="1">
          <mxGeometry width="50" height="50" relative="1" as="geometry">
            <mxPoint x="150" y="260" as="sourcePoint" />
            <mxPoint x="200" y="210" as="targetPoint" />
          </mxGeometry>
        </mxCell>
        <mxCell id="Um9vtxeuA9d53YDTD32n-8" value="" style="endArrow=classic;html=1;rounded=0;fontFamily=Verdana;entryX=0.04;entryY=0.96;entryDx=0;entryDy=0;entryPerimeter=0;" parent="Um9vtxeuA9d53YDTD32n-1" target="Um9vtxeuA9d53YDTD32n-5" edge="1">
          <mxGeometry width="50" height="50" relative="1" as="geometry">
            <mxPoint x="250" y="290" as="sourcePoint" />
            <mxPoint x="300" y="240" as="targetPoint" />
          </mxGeometry>
        </mxCell>
        <mxCell id="Um9vtxeuA9d53YDTD32n-9" value="" style="endArrow=classic;html=1;rounded=0;fontFamily=Verdana;" parent="Um9vtxeuA9d53YDTD32n-1" edge="1">
          <mxGeometry width="50" height="50" relative="1" as="geometry">
            <mxPoint x="290" y="330" as="sourcePoint" />
            <mxPoint x="398" y="330" as="targetPoint" />
          </mxGeometry>
        </mxCell>
        <mxCell id="Um9vtxeuA9d53YDTD32n-10" value="1" style="text;html=1;strokeColor=none;fillColor=none;align=center;verticalAlign=middle;whiteSpace=wrap;rounded=0;fontFamily=Helvetica;" parent="Um9vtxeuA9d53YDTD32n-1" vertex="1">
          <mxGeometry x="120" y="250" width="60" height="30" as="geometry" />
        </mxCell>
        <mxCell id="Um9vtxeuA9d53YDTD32n-11" value="2" style="text;html=1;strokeColor=none;fillColor=none;align=center;verticalAlign=middle;whiteSpace=wrap;rounded=0;fontFamily=Helvetica;" parent="Um9vtxeuA9d53YDTD32n-1" vertex="1">
          <mxGeometry x="293.75" y="250" width="60" height="30" as="geometry" />
        </mxCell>
        <mxCell id="Um9vtxeuA9d53YDTD32n-12" value="3" style="text;html=1;strokeColor=none;fillColor=none;align=center;verticalAlign=middle;whiteSpace=wrap;rounded=0;fontFamily=Helvetica;" parent="Um9vtxeuA9d53YDTD32n-1" vertex="1">
          <mxGeometry x="310" y="340" width="60" height="30" as="geometry" />
        </mxCell>
        <mxCell id="Um9vtxeuA9d53YDTD32n-13" value="&lt;h1&gt;Terraform Workflow&lt;/h1&gt;&lt;p&gt;$ terraform plan&lt;/p&gt;" style="text;html=1;strokeColor=none;fillColor=none;spacing=5;spacingTop=-20;whiteSpace=wrap;overflow=hidden;rounded=0;" parent="Um9vtxeuA9d53YDTD32n-1" vertex="1">
          <mxGeometry x="160" y="440" width="480" height="120" as="geometry" />
        </mxCell>
        <mxCell id="Um9vtxeuA9d53YDTD32n-14" value="" style="image;html=1;image=img/lib/clip_art/general/Empty_Folder_128x128.png;fontFamily=Verdana;" parent="Um9vtxeuA9d53YDTD32n-1" vertex="1">
          <mxGeometry x="80" y="560" width="80" height="80" as="geometry" />
        </mxCell>
        <mxCell id="Um9vtxeuA9d53YDTD32n-15" value="" style="sketch=0;outlineConnect=0;gradientColor=none;fontColor=#545B64;strokeColor=none;fillColor=#879196;dashed=0;verticalLabelPosition=bottom;verticalAlign=top;align=center;html=1;fontSize=12;fontStyle=0;aspect=fixed;shape=mxgraph.aws4.illustration_desktop;pointerEvents=1;fontFamily=Verdana;" parent="Um9vtxeuA9d53YDTD32n-1" vertex="1">
          <mxGeometry x="180" y="720" width="100" height="91" as="geometry" />
        </mxCell>
        <mxCell id="Um9vtxeuA9d53YDTD32n-16" value="" style="verticalLabelPosition=bottom;html=1;verticalAlign=top;align=center;strokeColor=none;fillColor=#00BEF2;shape=mxgraph.azure.code_file;pointerEvents=1;fontFamily=Verdana;" parent="Um9vtxeuA9d53YDTD32n-1" vertex="1">
          <mxGeometry x="300" y="590" width="47.5" height="50" as="geometry" />
        </mxCell>
        <mxCell id="Um9vtxeuA9d53YDTD32n-17" value="" style="shape=image;html=1;verticalAlign=top;verticalLabelPosition=bottom;labelBackgroundColor=#ffffff;imageAspect=0;aspect=fixed;image=https://cdn2.iconfinder.com/data/icons/essential-web-5/50/puzzle-solution-problem-challenge-resolution-128.png;fontFamily=Verdana;" parent="Um9vtxeuA9d53YDTD32n-1" vertex="1">
          <mxGeometry x="401" y="730" width="48" height="48" as="geometry" />
        </mxCell>
        <mxCell id="Um9vtxeuA9d53YDTD32n-18" value="" style="endArrow=classic;html=1;rounded=0;fontFamily=Verdana;exitX=1;exitY=1;exitDx=0;exitDy=0;" parent="Um9vtxeuA9d53YDTD32n-1" source="Um9vtxeuA9d53YDTD32n-14" target="Um9vtxeuA9d53YDTD32n-15" edge="1">
          <mxGeometry width="50" height="50" relative="1" as="geometry">
            <mxPoint x="150" y="690" as="sourcePoint" />
            <mxPoint x="200" y="640" as="targetPoint" />
          </mxGeometry>
        </mxCell>
        <mxCell id="Um9vtxeuA9d53YDTD32n-19" value="" style="endArrow=classic;html=1;rounded=0;fontFamily=Verdana;entryX=0.04;entryY=0.96;entryDx=0;entryDy=0;entryPerimeter=0;" parent="Um9vtxeuA9d53YDTD32n-1" target="Um9vtxeuA9d53YDTD32n-16" edge="1">
          <mxGeometry width="50" height="50" relative="1" as="geometry">
            <mxPoint x="250" y="720" as="sourcePoint" />
            <mxPoint x="300" y="670" as="targetPoint" />
          </mxGeometry>
        </mxCell>
        <mxCell id="Um9vtxeuA9d53YDTD32n-20" value="" style="endArrow=classic;html=1;rounded=0;fontFamily=Verdana;" parent="Um9vtxeuA9d53YDTD32n-1" edge="1">
          <mxGeometry width="50" height="50" relative="1" as="geometry">
            <mxPoint x="290" y="760" as="sourcePoint" />
            <mxPoint x="398" y="760" as="targetPoint" />
          </mxGeometry>
        </mxCell>
        <mxCell id="Um9vtxeuA9d53YDTD32n-21" value="1" style="text;html=1;strokeColor=none;fillColor=none;align=center;verticalAlign=middle;whiteSpace=wrap;rounded=0;fontFamily=Helvetica;" parent="Um9vtxeuA9d53YDTD32n-1" vertex="1">
          <mxGeometry x="120" y="680" width="60" height="30" as="geometry" />
        </mxCell>
        <mxCell id="Um9vtxeuA9d53YDTD32n-22" value="2" style="text;html=1;strokeColor=none;fillColor=none;align=center;verticalAlign=middle;whiteSpace=wrap;rounded=0;fontFamily=Helvetica;" parent="Um9vtxeuA9d53YDTD32n-1" vertex="1">
          <mxGeometry x="293.75" y="680" width="60" height="30" as="geometry" />
        </mxCell>
        <mxCell id="Um9vtxeuA9d53YDTD32n-23" value="3" style="text;html=1;strokeColor=none;fillColor=none;align=center;verticalAlign=middle;whiteSpace=wrap;rounded=0;fontFamily=Helvetica;" parent="Um9vtxeuA9d53YDTD32n-1" vertex="1">
          <mxGeometry x="310" y="770" width="60" height="30" as="geometry" />
        </mxCell>
        <mxCell id="Um9vtxeuA9d53YDTD32n-24" value="" style="verticalLabelPosition=bottom;html=1;verticalAlign=top;align=center;strokeColor=none;fillColor=#00BEF2;shape=mxgraph.azure.cloud_service;fontFamily=Helvetica;" parent="Um9vtxeuA9d53YDTD32n-1" vertex="1">
          <mxGeometry x="580" y="734" width="50" height="40" as="geometry" />
        </mxCell>
        <mxCell id="Um9vtxeuA9d53YDTD32n-25" value="" style="endArrow=classic;html=1;rounded=0;fontFamily=Verdana;" parent="Um9vtxeuA9d53YDTD32n-1" edge="1">
          <mxGeometry width="50" height="50" relative="1" as="geometry">
            <mxPoint x="460" y="758.5" as="sourcePoint" />
            <mxPoint x="568" y="758.5" as="targetPoint" />
          </mxGeometry>
        </mxCell>
        <mxCell id="Um9vtxeuA9d53YDTD32n-26" value="4" style="text;html=1;strokeColor=none;fillColor=none;align=center;verticalAlign=middle;whiteSpace=wrap;rounded=0;fontFamily=Helvetica;" parent="Um9vtxeuA9d53YDTD32n-1" vertex="1">
          <mxGeometry x="480" y="770" width="60" height="30" as="geometry" />
        </mxCell>
        <mxCell id="Um9vtxeuA9d53YDTD32n-29" value="&lt;h1&gt;Terraform Workflow&lt;/h1&gt;&lt;p&gt;$ terraform plan&lt;/p&gt;" style="text;html=1;strokeColor=none;fillColor=none;spacing=5;spacingTop=-20;whiteSpace=wrap;overflow=hidden;rounded=0;" parent="Um9vtxeuA9d53YDTD32n-1" vertex="1">
          <mxGeometry x="160" y="880" width="480" height="120" as="geometry" />
        </mxCell>
        <mxCell id="Um9vtxeuA9d53YDTD32n-30" value="" style="image;html=1;image=img/lib/clip_art/general/Empty_Folder_128x128.png;fontFamily=Verdana;" parent="Um9vtxeuA9d53YDTD32n-1" vertex="1">
          <mxGeometry x="80" y="1000" width="80" height="80" as="geometry" />
        </mxCell>
        <mxCell id="Um9vtxeuA9d53YDTD32n-31" value="" style="sketch=0;outlineConnect=0;gradientColor=none;fontColor=#545B64;strokeColor=none;fillColor=#879196;dashed=0;verticalLabelPosition=bottom;verticalAlign=top;align=center;html=1;fontSize=12;fontStyle=0;aspect=fixed;shape=mxgraph.aws4.illustration_desktop;pointerEvents=1;fontFamily=Verdana;" parent="Um9vtxeuA9d53YDTD32n-1" vertex="1">
          <mxGeometry x="180" y="1160" width="100" height="91" as="geometry" />
        </mxCell>
        <mxCell id="Um9vtxeuA9d53YDTD32n-32" value="" style="verticalLabelPosition=bottom;html=1;verticalAlign=top;align=center;strokeColor=none;fillColor=#00BEF2;shape=mxgraph.azure.code_file;pointerEvents=1;fontFamily=Verdana;" parent="Um9vtxeuA9d53YDTD32n-1" vertex="1">
          <mxGeometry x="300" y="1030" width="47.5" height="50" as="geometry" />
        </mxCell>
        <mxCell id="Um9vtxeuA9d53YDTD32n-33" value="" style="shape=image;html=1;verticalAlign=top;verticalLabelPosition=bottom;labelBackgroundColor=#ffffff;imageAspect=0;aspect=fixed;image=https://cdn2.iconfinder.com/data/icons/essential-web-5/50/puzzle-solution-problem-challenge-resolution-128.png;fontFamily=Verdana;" parent="Um9vtxeuA9d53YDTD32n-1" vertex="1">
          <mxGeometry x="401" y="1170" width="48" height="48" as="geometry" />
        </mxCell>
        <mxCell id="Um9vtxeuA9d53YDTD32n-34" value="" style="endArrow=classic;html=1;rounded=0;fontFamily=Verdana;entryX=0.04;entryY=0.96;entryDx=0;entryDy=0;entryPerimeter=0;" parent="Um9vtxeuA9d53YDTD32n-1" target="Um9vtxeuA9d53YDTD32n-32" edge="1">
          <mxGeometry width="50" height="50" relative="1" as="geometry">
            <mxPoint x="250" y="1160" as="sourcePoint" />
            <mxPoint x="300" y="1110" as="targetPoint" />
          </mxGeometry>
        </mxCell>
        <mxCell id="Um9vtxeuA9d53YDTD32n-35" value="" style="endArrow=classic;html=1;rounded=0;fontFamily=Verdana;" parent="Um9vtxeuA9d53YDTD32n-1" edge="1">
          <mxGeometry width="50" height="50" relative="1" as="geometry">
            <mxPoint x="290" y="1200" as="sourcePoint" />
            <mxPoint x="398" y="1200" as="targetPoint" />
          </mxGeometry>
        </mxCell>
        <mxCell id="Um9vtxeuA9d53YDTD32n-36" value="1" style="text;html=1;strokeColor=none;fillColor=none;align=center;verticalAlign=middle;whiteSpace=wrap;rounded=0;fontFamily=Helvetica;" parent="Um9vtxeuA9d53YDTD32n-1" vertex="1">
          <mxGeometry x="120" y="1120" width="60" height="30" as="geometry" />
        </mxCell>
        <mxCell id="Um9vtxeuA9d53YDTD32n-37" value="2" style="text;html=1;strokeColor=none;fillColor=none;align=center;verticalAlign=middle;whiteSpace=wrap;rounded=0;fontFamily=Helvetica;" parent="Um9vtxeuA9d53YDTD32n-1" vertex="1">
          <mxGeometry x="293.75" y="1120" width="60" height="30" as="geometry" />
        </mxCell>
        <mxCell id="Um9vtxeuA9d53YDTD32n-38" value="3" style="text;html=1;strokeColor=none;fillColor=none;align=center;verticalAlign=middle;whiteSpace=wrap;rounded=0;fontFamily=Helvetica;" parent="Um9vtxeuA9d53YDTD32n-1" vertex="1">
          <mxGeometry x="310" y="1210" width="60" height="30" as="geometry" />
        </mxCell>
        <mxCell id="Um9vtxeuA9d53YDTD32n-39" value="" style="verticalLabelPosition=bottom;html=1;verticalAlign=top;align=center;strokeColor=none;fillColor=#00BEF2;shape=mxgraph.azure.cloud_service;fontFamily=Helvetica;" parent="Um9vtxeuA9d53YDTD32n-1" vertex="1">
          <mxGeometry x="580" y="1174" width="50" height="40" as="geometry" />
        </mxCell>
        <mxCell id="Um9vtxeuA9d53YDTD32n-40" value="" style="endArrow=classic;html=1;rounded=0;fontFamily=Verdana;" parent="Um9vtxeuA9d53YDTD32n-1" edge="1">
          <mxGeometry width="50" height="50" relative="1" as="geometry">
            <mxPoint x="460" y="1198.5" as="sourcePoint" />
            <mxPoint x="568" y="1198.5" as="targetPoint" />
          </mxGeometry>
        </mxCell>
        <mxCell id="Um9vtxeuA9d53YDTD32n-41" value="4" style="text;html=1;strokeColor=none;fillColor=none;align=center;verticalAlign=middle;whiteSpace=wrap;rounded=0;fontFamily=Helvetica;" parent="Um9vtxeuA9d53YDTD32n-1" vertex="1">
          <mxGeometry x="480" y="1210" width="60" height="30" as="geometry" />
        </mxCell>
        <mxCell id="Um9vtxeuA9d53YDTD32n-42" value="" style="endArrow=classic;html=1;rounded=0;fontFamily=Verdana;exitX=1;exitY=1;exitDx=0;exitDy=0;" parent="Um9vtxeuA9d53YDTD32n-1" edge="1">
          <mxGeometry width="50" height="50" relative="1" as="geometry">
            <mxPoint x="160" y="1080" as="sourcePoint" />
            <mxPoint x="204.65670698010854" y="1160.0630960857661" as="targetPoint" />
          </mxGeometry>
        </mxCell>
        <mxCell id="Um9vtxeuA9d53YDTD32n-44" value="" style="shape=image;html=1;verticalAlign=top;verticalLabelPosition=bottom;labelBackgroundColor=#ffffff;imageAspect=0;aspect=fixed;image=https://cdn0.iconfinder.com/data/icons/octicons/1024/file-text-128.png;fontFamily=Helvetica;" parent="Um9vtxeuA9d53YDTD32n-1" vertex="1">
          <mxGeometry x="586" y="1050" width="38" height="38" as="geometry" />
        </mxCell>
        <mxCell id="Um9vtxeuA9d53YDTD32n-45" value="" style="endArrow=classic;html=1;rounded=0;fontFamily=Helvetica;" parent="Um9vtxeuA9d53YDTD32n-1" edge="1">
          <mxGeometry width="50" height="50" relative="1" as="geometry">
            <mxPoint x="600" y="1160" as="sourcePoint" />
            <mxPoint x="600" y="1100" as="targetPoint" />
          </mxGeometry>
        </mxCell>
        <mxCell id="Um9vtxeuA9d53YDTD32n-46" value="5" style="text;html=1;strokeColor=none;fillColor=none;align=center;verticalAlign=middle;whiteSpace=wrap;rounded=0;fontFamily=Helvetica;" parent="Um9vtxeuA9d53YDTD32n-1" vertex="1">
          <mxGeometry x="610" y="1120" width="60" height="30" as="geometry" />
        </mxCell>
      </root>
    </mxGraphModel>
  </diagram>
  <diagram id="neYlzU0jo4y_79Gz9mSi" name="Page-7">
    <mxGraphModel dx="2261" dy="1989" grid="1" gridSize="10" guides="1" tooltips="1" connect="1" arrows="1" fold="1" page="1" pageScale="1" pageWidth="827" pageHeight="1169" math="0" shadow="0">
      <root>
        <mxCell id="0" />
        <mxCell id="1" parent="0" />
        <mxCell id="vlPrZzinKsWRbIE4yJJW-1" value="&lt;h1&gt;Terraform Planning Process&lt;/h1&gt;Cuando Terraform calcula un plan de ejecución, comienza cargando la configuración y los datos de estado en la memoria.&lt;p style=&quot;margin: 0px; font-variant-numeric: normal; font-variant-east-asian: normal; font-variant-alternates: normal; font-kerning: auto; font-optical-sizing: auto; font-feature-settings: normal; font-variation-settings: normal; font-variant-position: normal; font-stretch: normal; font-size: 13px; line-height: normal; font-family: &amp;quot;Helvetica Neue&amp;quot;; min-height: 15px;&quot; class=&quot;p2&quot;&gt;&lt;br&gt;&lt;/p&gt;Luego realiza una actualización de los datos de estado de los objetos del mundo real. Terraform tomará nota de cualquier divergencia entre lo que hay en el state data y los valores reales de los recursos gestionados.&lt;p style=&quot;margin: 0px; font-variant-numeric: normal; font-variant-east-asian: normal; font-variant-alternates: normal; font-kerning: auto; font-optical-sizing: auto; font-feature-settings: normal; font-variation-settings: normal; font-variant-position: normal; font-stretch: normal; font-size: 13px; line-height: normal; font-family: &amp;quot;Helvetica Neue&amp;quot;; min-height: 15px;&quot; class=&quot;p2&quot;&gt;&lt;br&gt;&lt;/p&gt;Al mismo tiempo, valida la configuración y crea un gráfico de dependencia para todos los objetos. Luego calculará los cambios que deben realizarse en los datos de estado y administrará los recursos para que coincidan con lo que hay en la configuración.&lt;p style=&quot;margin: 0px; font-variant-numeric: normal; font-variant-east-asian: normal; font-variant-alternates: normal; font-kerning: auto; font-optical-sizing: auto; font-feature-settings: normal; font-variation-settings: normal; font-variant-position: normal; font-stretch: normal; font-size: 13px; line-height: normal; font-family: &amp;quot;Helvetica Neue&amp;quot;; min-height: 15px;&quot; class=&quot;p2&quot;&gt;&lt;br&gt;&lt;/p&gt;Finalmente, generará un plan de ejecución que contiene los cambios requeridos y cómo alterarán los recursos administrados." style="text;html=1;strokeColor=none;fillColor=none;spacing=5;spacingTop=-20;whiteSpace=wrap;overflow=hidden;rounded=0;" parent="1" vertex="1">
          <mxGeometry x="59" y="-90" width="710" height="230" as="geometry" />
        </mxCell>
        <mxCell id="vlPrZzinKsWRbIE4yJJW-2" value="terraform plan" style="ellipse;whiteSpace=wrap;html=1;" parent="1" vertex="1">
          <mxGeometry x="-40" y="290" width="120" height="80" as="geometry" />
        </mxCell>
        <mxCell id="vlPrZzinKsWRbIE4yJJW-3" value="refresh state" style="ellipse;whiteSpace=wrap;html=1;" parent="1" vertex="1">
          <mxGeometry x="370" y="200" width="120" height="80" as="geometry" />
        </mxCell>
        <mxCell id="vlPrZzinKsWRbIE4yJJW-4" value="load state" style="ellipse;whiteSpace=wrap;html=1;" parent="1" vertex="1">
          <mxGeometry x="160" y="200" width="120" height="80" as="geometry" />
        </mxCell>
        <mxCell id="vlPrZzinKsWRbIE4yJJW-5" value="generate diff" style="ellipse;whiteSpace=wrap;html=1;" parent="1" vertex="1">
          <mxGeometry x="572" y="270" width="120" height="80" as="geometry" />
        </mxCell>
        <mxCell id="vlPrZzinKsWRbIE4yJJW-6" value="load configuration" style="ellipse;whiteSpace=wrap;html=1;" parent="1" vertex="1">
          <mxGeometry x="160" y="400" width="120" height="80" as="geometry" />
        </mxCell>
        <mxCell id="vlPrZzinKsWRbIE4yJJW-7" value="validate configuration" style="ellipse;whiteSpace=wrap;html=1;" parent="1" vertex="1">
          <mxGeometry x="370" y="400" width="120" height="80" as="geometry" />
        </mxCell>
        <mxCell id="vlPrZzinKsWRbIE4yJJW-8" value="validate configuration" style="ellipse;whiteSpace=wrap;html=1;" parent="1" vertex="1">
          <mxGeometry x="572" y="400" width="120" height="80" as="geometry" />
        </mxCell>
        <mxCell id="vlPrZzinKsWRbIE4yJJW-9" value="execution plan" style="ellipse;whiteSpace=wrap;html=1;" parent="1" vertex="1">
          <mxGeometry x="810" y="270" width="120" height="80" as="geometry" />
        </mxCell>
        <mxCell id="vlPrZzinKsWRbIE4yJJW-10" value="" style="endArrow=classic;html=1;rounded=0;entryX=0;entryY=0.5;entryDx=0;entryDy=0;" parent="1" target="vlPrZzinKsWRbIE4yJJW-4" edge="1">
          <mxGeometry width="50" height="50" relative="1" as="geometry">
            <mxPoint x="60" y="300" as="sourcePoint" />
            <mxPoint x="110" y="250" as="targetPoint" />
          </mxGeometry>
        </mxCell>
        <mxCell id="vlPrZzinKsWRbIE4yJJW-11" value="" style="endArrow=classic;html=1;rounded=0;exitX=1;exitY=0.5;exitDx=0;exitDy=0;" parent="1" source="vlPrZzinKsWRbIE4yJJW-4" edge="1">
          <mxGeometry width="50" height="50" relative="1" as="geometry">
            <mxPoint x="320" y="290" as="sourcePoint" />
            <mxPoint x="370" y="240" as="targetPoint" />
          </mxGeometry>
        </mxCell>
        <mxCell id="vlPrZzinKsWRbIE4yJJW-12" value="" style="endArrow=classic;html=1;rounded=0;entryX=0;entryY=0.5;entryDx=0;entryDy=0;exitX=1;exitY=0.5;exitDx=0;exitDy=0;" parent="1" source="vlPrZzinKsWRbIE4yJJW-3" target="vlPrZzinKsWRbIE4yJJW-5" edge="1">
          <mxGeometry width="50" height="50" relative="1" as="geometry">
            <mxPoint x="460" y="370" as="sourcePoint" />
            <mxPoint x="510" y="320" as="targetPoint" />
          </mxGeometry>
        </mxCell>
        <mxCell id="vlPrZzinKsWRbIE4yJJW-13" value="" style="endArrow=classic;html=1;rounded=0;entryX=0;entryY=0.5;entryDx=0;entryDy=0;" parent="1" source="vlPrZzinKsWRbIE4yJJW-2" target="vlPrZzinKsWRbIE4yJJW-6" edge="1">
          <mxGeometry width="50" height="50" relative="1" as="geometry">
            <mxPoint x="80" y="410" as="sourcePoint" />
            <mxPoint x="130" y="360" as="targetPoint" />
          </mxGeometry>
        </mxCell>
        <mxCell id="vlPrZzinKsWRbIE4yJJW-14" value="" style="endArrow=classic;html=1;rounded=0;entryX=0;entryY=0.5;entryDx=0;entryDy=0;" parent="1" target="vlPrZzinKsWRbIE4yJJW-7" edge="1">
          <mxGeometry width="50" height="50" relative="1" as="geometry">
            <mxPoint x="280" y="440" as="sourcePoint" />
            <mxPoint x="330" y="390" as="targetPoint" />
          </mxGeometry>
        </mxCell>
        <mxCell id="vlPrZzinKsWRbIE4yJJW-15" value="" style="endArrow=classic;html=1;rounded=0;exitX=1;exitY=0.5;exitDx=0;exitDy=0;" parent="1" source="vlPrZzinKsWRbIE4yJJW-7" edge="1">
          <mxGeometry width="50" height="50" relative="1" as="geometry">
            <mxPoint x="522" y="490" as="sourcePoint" />
            <mxPoint x="572" y="440" as="targetPoint" />
          </mxGeometry>
        </mxCell>
        <mxCell id="vlPrZzinKsWRbIE4yJJW-16" value="" style="endArrow=classic;html=1;rounded=0;exitX=0.5;exitY=0;exitDx=0;exitDy=0;" parent="1" source="vlPrZzinKsWRbIE4yJJW-8" edge="1">
          <mxGeometry width="50" height="50" relative="1" as="geometry">
            <mxPoint x="590" y="400" as="sourcePoint" />
            <mxPoint x="640" y="350" as="targetPoint" />
          </mxGeometry>
        </mxCell>
        <mxCell id="vlPrZzinKsWRbIE4yJJW-17" value="" style="endArrow=classic;html=1;rounded=0;entryX=0;entryY=0.5;entryDx=0;entryDy=0;" parent="1" target="vlPrZzinKsWRbIE4yJJW-9" edge="1">
          <mxGeometry width="50" height="50" relative="1" as="geometry">
            <mxPoint x="692" y="310" as="sourcePoint" />
            <mxPoint x="742" y="260" as="targetPoint" />
          </mxGeometry>
        </mxCell>
      </root>
    </mxGraphModel>
  </diagram>
  <diagram id="FTCHfByd9MfMtbm3oPDd" name="Page-8">
    <mxGraphModel dx="1434" dy="820" grid="1" gridSize="10" guides="1" tooltips="1" connect="1" arrows="1" fold="1" page="1" pageScale="1" pageWidth="827" pageHeight="1169" math="0" shadow="0">
      <root>
        <mxCell id="0" />
        <mxCell id="1" parent="0" />
      </root>
    </mxGraphModel>
  </diagram>
</mxfile>
